# xmcd
#
# Track frame offsets:
#	150
#	17503
#	34248
#	51788
#	69685
#	81378
#	97513
#	112615
#	127783
#	144508
#	160253
#	178548
#	191293
#	206103
#	222498
#	237715
#	254415
#	269015
#	289798
#
# Disc length: 4105 seconds
#
# Revision: 0
# Processed by: cddbd v1.5.2PL0 Copyright (c) Steve Scherf et al.
# Submitted via: EasyCDDAExtractor 7.1.2.1
#
DISCID=12100713
DTITLE=Various Artist - TM Century - GoldDisc 1151
DYEAR=1900
DGENRE=Country
TTITLE0=Boy Howdy - A Cowboy's Born With A Broken Heart
TTITLE1=Radney Foster - Easier Said Than Done
TTITLE2=Hal Ketchum - Mama Knows The Highway
TTITLE3=Trisha Yearwood - Down On My Knees
TTITLE4=Tracy Byrd - Holdin' Heaven
TTITLE5=Aaron Tippin - Working Man Ph.D.
TTITLE6=Steve Wariner - If I Didn't Love You
TTITLE7=Sawyer Brown - Thank God For You
TTITLE8=John Michael Montgomery - Beer And Bones
TTITLE9=Dwight Yoakam - A Thousand Miles From Nowhere [Edit]
TTITLE10=Billiy Way Cyrus - In The Heart Of A Woman
TTITLE11=Clay Walker - What's It To You
TTITLE12=Travis Tritt - Looking Out For Number One [Single Version]
TTITLE13=Wynonna Judd - Only Love
TTITLE14=Jow Diffie - Prop Me Up Beside The Jukebox (If I Die) [Edited]
TTITLE15=Brother Phelps - Let Go
TTITLE16=Vince Gill - One More Last Chance [Remix]
TTITLE17=Garth Brooks - Ain't Going Down (Til The Sun Comes Up)
TTITLE18=Clint Black - No Time To Kill
EXTD=
EXTT0=
EXTT1=
EXTT2=
EXTT3=
EXTT4=
EXTT5=
EXTT6=
EXTT7=
EXTT8=
EXTT9=
EXTT10=
EXTT11=
EXTT12=
EXTT13=
EXTT14=
EXTT15=
EXTT16=
EXTT17=
EXTT18=
PLAYORDER=
